# xmcd CD database file
#
# Track frame offsets:
#	150
#	8458
#	19700
#	50700
#	63325
#	77100
#	90475
#	106050
#	117200
#	143533
#	164663
#	187633
#	214688
#	239785
#	271513
#	286635
#	310205
#	327373
#
# Disc length: 4583 seconds
#
# Revision: 1
# Processed by: cddbd v1.5.2PL0 Copyright (c) Steve Scherf et al.
# Submitted via: CDex 1.51
#
DISCID=e411e512
DTITLE=Cuby and Blizzards - The Universal Master Collection
DYEAR=2002
DGENRE=Blues
TTITLE0=Another Day, Another Road
TTITLE1=Applenockers Flophouse
TTITLE2=Somebody Will Know Someday
TTITLE3=Just For Fun
TTITLE4=Distant Smile
TTITLE5=Desolation Blues
TTITLE6=Window Of My Eyes
TTITLE7=Goin' Home
TTITLE8=The Sky Is Crying
TTITLE9=Night Train
TTITLE10=Seasons Come And Seasons Go
TTITLE11=Evil Woman
TTITLE12=Help Me
TTITLE13=Go Down Sunshine
TTITLE14=Thursday Night
TTITLE15=Too Blind To See
TTITLE16=Back Street
TTITLE17=Sometimes
EXTD=YEAR: 2002
EXTT0=
EXTT1=
EXTT2=
EXTT3=
EXTT4=
EXTT5=
EXTT6=
EXTT7=
EXTT8=
EXTT9=
EXTT10=
EXTT11=
EXTT12=
EXTT13=
EXTT14=
EXTT15=
EXTT16=
EXTT17=
PLAYORDER=
